<?xml version="1.0" encoding="UTF-8" standalone="no"?>
<!-- Created with Inkscape (http://www.inkscape.org/) -->

<svg
   xmlns:dc="http://purl.org/dc/elements/1.1/"
   xmlns:cc="http://creativecommons.org/ns#"
   xmlns:rdf="http://www.w3.org/1999/02/22-rdf-syntax-ns#"
   xmlns:svg="http://www.w3.org/2000/svg"
   xmlns="http://www.w3.org/2000/svg"
   xmlns:sodipodi="http://sodipodi.sourceforge.net/DTD/sodipodi-0.dtd"
   xmlns:inkscape="http://www.inkscape.org/namespaces/inkscape"
   width="308.5477"
   height="338.77313"
   viewBox="0 0 308.54769 338.77315"
   id="svg5969"
   version="1.1"
   inkscape:version="0.91 r13725"
   sodipodi:docname="evil.svg">
  <sodipodi:namedview
     id="base"
     pagecolor="#ffffff"
     bordercolor="#666666"
     borderopacity="1.0"
     inkscape:pageopacity="0.0"
     inkscape:pageshadow="2"
     inkscape:zoom="1.979899"
     inkscape:cx="266.57863"
     inkscape:cy="209.2081"
     inkscape:document-units="px"
     inkscape:current-layer="layer1"
     showgrid="false"
     fit-margin-top="0"
     fit-margin-left="0"
     fit-margin-right="0"
     fit-margin-bottom="0"
     inkscape:window-width="2560"
     inkscape:window-height="1416"
     inkscape:window-x="0"
     inkscape:window-y="0"
     inkscape:window-maximized="1"
     units="px" />
  <defs
     id="defs5971" />
  <metadata
     id="metadata5974">
    <rdf:RDF>
      <cc:Work
         rdf:about="">
        <dc:format>image/svg+xml</dc:format>
        <dc:type
           rdf:resource="http://purl.org/dc/dcmitype/StillImage" />
        <dc:title></dc:title>
      </cc:Work>
    </rdf:RDF>
  </metadata>
  <g
     inkscape:label="Layer 1"
     inkscape:groupmode="layer"
     id="layer1">
    <g
       inkscape:transform-center-y="-44.637476"
       inkscape:transform-center-x="-39.870384"
       inkscape:label="#g6676"
       id="#larm">
      <path
         style="opacity:1;stroke-opacity:1;fill-opacity:1;stroke:none;stroke-linecap:round;stroke-miterlimit:4;stroke-dasharray:none;stroke-width:6.0672322984;fill:#b2cda3"
         d="M270.634997253 175.575042635C208.535970645 165.485356665 199.272908672 175.473331553 163.993354378 175.575042635C163.993354378 175.575042635 163.993354378 149.221072652 163.993354378 149.221072652C199.540570692 150.89759455 235.087780939 155.612040333 270.634997253 149.221072652C283.787755786 158.00572729 281.713963651 166.790387996 270.634997253 175.575042635C270.634997253 175.575042635 270.634997253 175.575042635 270.634997253 175.575042635"
         id="path6588" />
      <g
         id="#llarm"
         inkscape:label="#g6662"
         inkscape:transform-center-x="-22.142857"
         inkscape:transform-center-y="-81.428547">
        <path
           style="opacity:1;stroke-opacity:1;fill-opacity:1;stroke:none;stroke-linecap:round;stroke-miterlimit:4;stroke-dasharray:none;stroke-width:6.0672322984;fill:#b2cda3"
           d="M258.294744268 158.489880293C282.443062957 100.395554634 274.862389896 89.0775453499 282.905106965 54.7268236489C289.199156678 51.5043648935 283.330905328 65.724501269 285.868865003 67.7304071414C288.40681861 69.7363130138 289.301541223 53.4057202189 294.525100603 54.5601810465C299.748659982 55.7146358069 293.630262712 70.416668175 296.908897971 70.7227418428C300.187533231 71.0288155106 302.477755676 55.1337893226 308.547700029 60.8086961804C298.712971294 95.0094783696 285.922329454 128.509179732 283.937325197 164.571746758C272.354450887 175.342182259 264.285499105 171.297073544 258.294744268 158.489880293C258.294744268 158.489880293 258.294744268 158.489880293 258.294744268 158.489880293"
           id="path6590" />
        <path
           id="path6592"
           d="M277.574770364 90.900669782C277.574770364 90.900669782 297.862157242 95.6593760247 297.862157242 95.6593760247C298.654088805 106.582475225 294.282174688 117.220626861 290.304212033 127.88051739C290.304212033 127.88051739 270.016831223 123.12180508 270.016831223 123.12180508C269.433036064 112.682094411 270.018651392 102.129066045 277.574770364 90.900669782C277.574770364 90.900669782 277.574770364 90.900669782 277.574770364 90.900669782"
           style="opacity:1;stroke-opacity:1;fill-opacity:1;stroke:none;stroke-linecap:round;stroke-miterlimit:4;stroke-dasharray:none;stroke-width:6.0672322984;fill:#f3f57b" />
      </g>
    </g>
    <g
       inkscape:transform-center-y="-40.303738"
       inkscape:transform-center-x="44.204121"
       inkscape:label="#g6670"
       id="#rarm">
      <path
         id="rect6556"
         d="M29.216750376 148.787696316C91.3157745572 158.877382286 100.57883653 148.889407398 135.858390824 148.787696316C135.858390824 148.787696316 135.858390824 175.141666299 135.858390824 175.141666299C100.31117451 173.465144401 64.7639642631 168.750698618 29.216750376 175.141666299C16.0639924496 166.35701166 18.1377827641 157.572350954 29.216750376 148.787696316C29.216750376 148.787696316 29.216750376 148.787696316 29.216750376 148.787696316"
         style="opacity:1;stroke-opacity:1;fill-opacity:1;stroke:none;stroke-linecap:round;stroke-miterlimit:4;stroke-dasharray:none;stroke-width:6.0672322984;fill:#b2cda3" />
      <g
         inkscape:label="#g6666"
         id="#lrarm"
         inkscape:transform-center-x="12.857143"
         inkscape:transform-center-y="-74.999976">
        <path
           id="path6559"
           d="M19.1992122919 171.572082982C17.9440354081 108.671241289 6.45158712843 101.357720601 -1.525879e-05 66.6729370893C4.46655617548 61.1912351769 4.81288410946 76.5707225692 7.94327322137 77.3865347587C11.0736623333 78.2023469482 5.32498581813 62.8908610956 10.5717681362 61.8470241145C15.8185504543 60.8031871335 16.1296641721 76.7244844374 19.2545490908 75.6861079654C22.3794346163 74.6477314934 18.0835969191 59.1737954959 25.9233353389 61.9283007584C30.6739478936 97.1965153951 32.4362786581 133.011660687 45.1225580358 166.827446651C38.8493978043 181.346837125 29.8349224733 180.888475927 19.1992122919 171.572082982C19.1992122919 171.572082982 19.1992122919 171.572082982 19.1992122919 171.572082982"
           style="opacity:1;stroke-opacity:1;fill-opacity:1;stroke:none;stroke-linecap:round;stroke-miterlimit:4;stroke-dasharray:none;stroke-width:6.0672322984;fill:#b2cda3" />
        <path
           style="opacity:1;stroke-opacity:1;fill-opacity:1;stroke:none;stroke-linecap:round;stroke-miterlimit:4;stroke-dasharray:none;stroke-width:6.0672322984;fill:#f3f57b"
           d="M9.66816612895 101.936030982C9.66816612895 101.936030982 30.1563523061 98.1337147012 30.1563523061 98.1337147012C35.274475323 107.815973888 35.5501824931 119.314143568 36.1953173708 130.673774065C36.1953173708 130.673774065 15.7071318004 134.476084279 15.7071318004 134.476084279C10.9739849873 125.152689748 7.26604025792 115.255177294 9.66816612895 101.936030982C9.66816612895 101.936030982 9.66816612895 101.936030982 9.66816612895 101.936030982"
           id="rect6561" />
      </g>
    </g>
    <path
       id="#lowerbody"
       d="m 241.49771,294.91482 c 0,57.20362 -43.42401,42.03726 -90.57511,42.03726 -47.1511,-1e-5 -80.174124,15.16636 -80.174124,-42.03726 0,-57.20362 38.223504,-103.57632 85.374614,-103.57632 47.1511,0 85.37462,46.3727 85.37462,103.57632 0,0 0,0 0,0"
       style="opacity:1;fill:#bd0000;fill-opacity:1;stroke:none;stroke-width:10;stroke-linecap:round;stroke-miterlimit:4;stroke-dasharray:none;stroke-opacity:1"
       inkscape:connector-curvature="0"
       inkscape:transform-center-x="-0.5050763"
       inkscape:transform-center-y="54.54824" />
    <path
       style="opacity:1;stroke-opacity:1;fill-opacity:1;stroke:none;stroke-linecap:round;stroke-miterlimit:4;stroke-dasharray:none;stroke-width:9.99999999736;fill:#800000"
       d="M239.764214741 205.63983C239.764214741 262.84346 196.340214741 247.67708 149.189114741 247.67708C102.038014741 247.67708 69.0149827412 262.84345 69.0149827412 205.63983C69.0149827412 148.43621 107.238504741 102.06351 154.389604741 102.0635C201.540694741 102.0635 239.764214741 148.43621 239.764214741 205.63983C239.764214741 205.63983 239.764214741 205.63983 239.764214741 205.63983"
       id="path6517" />
    <g
       id="#head"
       inkscape:label="#g7942"
       inkscape:transform-center-x="-2.5253815"
       inkscape:transform-center-y="-27.779196">
      <path
         id="path6522"
         d="M 160.22073,0 C 150.10707,0.01122438 140.30456,2.2272628 131.3836,6.3030474 75.081724,12.771081 35.260314,37.315584 35.189534,65.593649 c 0.05976,19.21842 18.64492,37.298591 50.151831,48.789081 -0.153204,4.46029 -0.238297,9.03255 -0.239371,13.71645 1.9e-5,54.33079 9.313153,98.3748 20.801606,98.37567 11.24585,-0.0544 26.94705,-76.60339 27.27258,-129.764623 10.28139,5.639933 15.31783,42.834073 27.04455,42.836113 11.48382,-0.0195 18.88492,-41.010186 29.00134,-46.444964 0.35819,53.057644 13.45331,133.339174 24.67826,133.373474 11.48891,0.002 20.80277,-44.04269 20.80279,-98.37567 -0.002,-4.60166 -0.12539,-9.16312 -0.33181,-13.66431 31.57851,-11.49016 50.20996,-29.594928 50.26205,-48.841221 C 284.56509,37.444616 245.10028,12.975965 189.13133,6.381254 180.36644,2.2834939 170.59528,5.1571475e-4 160.22073,0 c 0,0 0,0 0,0"
         style="opacity:1;fill:#000000;fill-opacity:1;stroke:none;stroke-width:6.06723213;stroke-linecap:round;stroke-miterlimit:4;stroke-dasharray:none;stroke-opacity:1"
         inkscape:connector-curvature="0" />
      <path
         id="path6532"
         d="m 157.79399,22.380279 c -28.37476,-1.34e-4 -51.37727,18.269455 -51.37777,40.806439 -0.62463,21.429458 21.10996,25.313724 21.05157,38.514622 -10e-5,36.46561 14.2159,66.02711 31.75247,66.02776 17.53695,4.7e-4 31.75354,-29.56136 31.75344,-66.02776 0.61647,-16.210506 17.82871,-22.322429 18.19709,-38.514622 -5e-4,-22.53668 -23.00242,-40.806142 -51.3768,-40.806439 0,0 0,0 0,0"
         style="opacity:1;fill:#75a45a;fill-opacity:1;stroke:none;stroke-width:6.06723213;stroke-linecap:round;stroke-miterlimit:4;stroke-dasharray:none;stroke-opacity:1"
         inkscape:connector-curvature="0" />
      <path
         id="path6569"
         d="m 159.22601,121.3971 c -9.48807,8e-5 -17.17954,3.02812 -17.17941,6.76334 10e-4,0.37619 0.0818,0.75168 0.24152,1.12258 4.97104,-1.32127 11.82562,-2.06906 18.99207,-2.07189 5.39758,0.001 10.66442,0.4252 15.09205,1.21536 0.0156,-0.0886 0.0269,-0.17729 0.0337,-0.26605 7e-5,-1.79375 -1.80993,-3.51404 -5.03181,-4.78242 -3.22187,-1.26837 -7.59169,-1.98094 -12.14812,-1.98092 0,0 3e-5,0 3e-5,0"
         style="opacity:1;fill:#ed1414;fill-opacity:1;stroke:none;stroke-width:6.06723213;stroke-linecap:round;stroke-miterlimit:4;stroke-dasharray:none;stroke-opacity:1"
         inkscape:connector-curvature="0" />
      <path
         style="opacity:1;fill:#ed1414;fill-opacity:1;stroke:none;stroke-width:6.06723213;stroke-linecap:round;stroke-miterlimit:4;stroke-dasharray:none;stroke-opacity:1"
         d="m 159.31989,138.18203 c 9.48808,-7e-5 17.17954,-3.02812 17.17941,-6.76334 -0.001,-0.37618 -0.0818,-0.75167 -0.24151,-1.12257 -4.97104,1.32127 -11.82562,2.06906 -18.99208,2.07189 -5.39757,-0.001 -10.66442,-0.4252 -15.09205,-1.21536 -0.0157,0.0886 -0.0269,0.17728 -0.0337,0.26604 -6e-5,1.79375 1.80994,3.51404 5.03182,4.78242 3.22187,1.26838 7.59168,1.98094 12.14811,1.98092 0,0 -3e-5,0 -3e-5,0"
         id="path6574"
         inkscape:connector-curvature="0" />
      <ellipse
         ry="10.089285"
         rx="22.214622"
         cy="61.713619"
         cx="136.00937"
         id="path6576"
         style="opacity:1;fill:#913056;fill-opacity:1;stroke:none;stroke-width:6.06723213;stroke-linecap:round;stroke-miterlimit:4;stroke-dasharray:none;stroke-opacity:1" />
      <ellipse
         ry="6.7261901"
         rx="18.203648"
         cy="62.962761"
         cx="137.55205"
         id="path6578"
         style="opacity:1;fill:#ffffff;fill-opacity:1;stroke:none;stroke-width:6.06723213;stroke-linecap:round;stroke-miterlimit:4;stroke-dasharray:none;stroke-opacity:1" />
      <ellipse
         ry="3.2670066"
         rx="5.8621917"
         cy="65.653259"
         cx="138.78619"
         id="path6580"
         style="opacity:1;fill:#000000;fill-opacity:1;stroke:none;stroke-width:6.06723213;stroke-linecap:round;stroke-miterlimit:4;stroke-dasharray:none;stroke-opacity:1" />
      <ellipse
         style="opacity:1;fill:#913056;fill-opacity:1;stroke:none;stroke-width:6.06723213;stroke-linecap:round;stroke-miterlimit:4;stroke-dasharray:none;stroke-opacity:1"
         id="ellipse6582"
         cx="179.61588"
         cy="61.713619"
         rx="22.214622"
         ry="10.089285" />
      <ellipse
         style="opacity:1;fill:#ffffff;fill-opacity:1;stroke:none;stroke-width:6.06723213;stroke-linecap:round;stroke-miterlimit:4;stroke-dasharray:none;stroke-opacity:1"
         id="ellipse6584"
         cx="181.15852"
         cy="62.962761"
         rx="18.203648"
         ry="6.7261901" />
      <ellipse
         style="opacity:1;fill:#000000;fill-opacity:1;stroke:none;stroke-width:6.06723213;stroke-linecap:round;stroke-miterlimit:4;stroke-dasharray:none;stroke-opacity:1"
         id="ellipse6586"
         cx="177.4561"
         cy="66.037605"
         rx="5.8621917"
         ry="3.2670066" />
      <path
         id="rect6594"
         d="m 157.20653,81.044882 c 1.61269,7.662502 3.25671,15.309332 7.69238,21.560338 -4.65267,2.16733 -9.44159,3.51715 -14.95139,0.54172 3.91763,-6.99286 5.5995,-14.544665 7.25901,-22.102058"
         style="opacity:1;fill:#466236;fill-opacity:1;stroke:none;stroke-width:6.06723213;stroke-linecap:round;stroke-miterlimit:4;stroke-dasharray:none;stroke-opacity:1"
         inkscape:connector-curvature="0" />
    </g>
  </g>
</svg>
