<?xml version="1.0" encoding="UTF-8" standalone="no"?>
<!-- Created with Inkscape (http://www.inkscape.org/) -->

<svg
   xmlns:dc="http://purl.org/dc/elements/1.1/"
   xmlns:cc="http://creativecommons.org/ns#"
   xmlns:rdf="http://www.w3.org/1999/02/22-rdf-syntax-ns#"
   xmlns:svg="http://www.w3.org/2000/svg"
   xmlns="http://www.w3.org/2000/svg"
   xmlns:sodipodi="http://sodipodi.sourceforge.net/DTD/sodipodi-0.dtd"
   xmlns:inkscape="http://www.inkscape.org/namespaces/inkscape"
   sodipodi:docname="fairy-inkscape.svg"
   inkscape:version="0.91 r13725"
   version="1.1"
   id="svg2"
   viewBox="0 0 269.15158 341.13474"
   height="96.275803mm"
   width="75.960556mm">
  <sodipodi:namedview
     inkscape:current-layer="layer1"
     inkscape:window-maximized="1"
     inkscape:window-y="0"
     inkscape:window-x="0"
     inkscape:cy="140.87809"
     inkscape:cx="556.66433"
     inkscape:zoom="1.2405755"
     showgrid="false"
     id="namedview4167"
     inkscape:window-height="1416"
     inkscape:window-width="2560"
     inkscape:pageshadow="2"
     inkscape:pageopacity="0"
     guidetolerance="10"
     gridtolerance="10"
     objecttolerance="10"
     borderopacity="1"
     bordercolor="#666666"
     pagecolor="#ffffff" />
  <metadata
     id="metadata4169">
    <rdf:RDF>
      <cc:Work
         rdf:about="">
        <dc:format>image/svg+xml</dc:format>
        <dc:type
           rdf:resource="http://purl.org/dc/dcmitype/StillImage" />
        <dc:title></dc:title>
      </cc:Work>
    </rdf:RDF>
  </metadata>
  <defs
     id="defs4" />
  <g
     inkscape:label="Layer 1"
     inkscape:groupmode="layer"
     id="layer1">
    <g
       id="rarm"
       inkscape:label="#g4228">
      <g
         id="g4234"
         inkscape:transform-center-x="44.197116"
         inkscape:transform-center-y="-6.4924253">
        <path
           style="opacity:1;stroke-opacity:1;fill-opacity:1;stroke:none;stroke-linecap:round;stroke-miterlimit:4;stroke-dasharray:none;stroke-width:29.2487457;fill:#f4c158"
           d="M18.5993149842 134.29589822C16.47556082 133.733824959 14.3151742224 139.064397578 12.1998899637 139.613319245C10.0846132306 140.162252885 5.42345026909 136.602123016 3.88344004136 138.114997989C2.34343203752 139.627863213 6.0030834332 144.17186667 5.45098127965 146.243318548C4.89889109957 148.314762899 -0.539994673457 150.449301417 0.0437643144212 152.524273599C0.627518854535 154.59926528 6.44520919475 153.814129933 8.00840549732 155.336642868C9.57158982642 156.859163329 8.79387676449 162.553833941 10.9176459801 163.115931149C13.0414098939 163.678006634 15.2013508609 158.34934271 17.3166373436 157.800411293C20.9900864217 155.126442113 72.8299756122 165.646986799 98.7194408274 170.056050072C98.7194408274 170.056050072 100.561697971 160.662146046 100.561697971 160.662146046C76.3860018997 152.855226396 22.4879616546 146.508739079 21.5062184176 142.076663762C19.9430243389 140.554141077 20.7230841998 134.857995428 18.5993149842 134.29589822C18.5993149842 134.29589822 18.5993149842 134.29589822 18.5993149842 134.29589822"
           id="path4230" />
        <path
           id="path4232"
           d="M113.656393421 142.04793881C134.181783088 156.184447629 123.892805462 186.82506657 104.313519949 189.712336361C84.7342366606 192.599596403 79.0071911655 158.762958322 56.6491246216 180.36945314C56.6491246216 180.36945314 65.9920078434 132.705057812 65.9920078434 132.705057812C80.1720541983 157.482977108 93.1310135047 127.911432215 113.656393421 142.04793881C113.656393421 142.04793881 113.656393421 142.04793881 113.656393421 142.04793881"
           style="opacity:1;stroke-opacity:1;fill-opacity:1;stroke:none;stroke-linecap:round;stroke-miterlimit:4;stroke-dasharray:none;stroke-width:29.2487457;fill:#640dbb" />
      </g>
    </g>
    <path
       style="stroke-linejoin:miter;stroke-opacity:1;fill-opacity:1;fill-rule:evenodd;stroke:none;stroke-linecap:butt;stroke-width:2.0;fill:#f4cb5a"
       d="M163.49002 251.17338C164.28187 263.03602 173.49052 273.1648 181.81888 280.13693C192.24058 289.67928 193.95532 303.25237 191.42633 313.16594C194.42796 326.0616 206.49806 321.44756 209.786 316.27892C214.26944 310.54575 217.34405 301.09635 211.618 290.63303C206.10885 277.64644 196.99588 266.6682 187.04926 258.54699C180.12041 252.37131 170.33416 243.87219 164.43907 248.94696C164.43907 248.94696 163.87781 249.92738 163.87781 249.92738C163.87781 249.92738 163.49002 251.17338 163.49002 251.17338C163.49002 251.17338 163.49002 251.17338 163.49002 251.17338"
       id="lleg" />
    <path
       id="rleg"
       d="M112.30477 260.55928C107.31579 271.35092 110.54529 284.65361 114.51465 294.76382C119.08987 308.13303 114.09138 320.86818 107.1215 328.35787C103.57715 341.11504 116.38228 342.84856 121.74478 339.88731C128.42709 337.00337 135.65348 330.18253 135.64106 318.25489C137.02806 304.21643 134.28956 290.21398 129.45039 278.31979C126.3278 269.57923 121.81047 257.43018 114.20457 259.05982C114.20457 259.05982 113.24217 259.65144 113.24217 259.65144C113.24217 259.65144 112.30477 260.55928 112.30477 260.55928C112.30477 260.55928 112.30477 260.55928 112.30477 260.55928"
       style="stroke-linejoin:miter;stroke-opacity:1;fill-opacity:1;fill-rule:evenodd;stroke:none;stroke-linecap:butt;stroke-width:2.0;fill:#f4cb5a" />
    <path
       id="#rwing"
       d="m 253.88993,125.29614 c 10.30103,20.98114 -5.03115,49.61719 -34.24539,63.9604 -29.21424,14.34322 -45.63932,-4.68693 -71.54874,-12.01902 7.8093,-29.47484 5.03114,-49.61718 34.24538,-63.9604 29.21424,-14.34322 61.24771,-8.96212 71.54875,12.01902 0,0 0,0 0,0"
       style="opacity:1;fill:#0fc4e0;fill-opacity:1;stroke:none;stroke-width:30;stroke-linecap:round;stroke-miterlimit:4;stroke-dasharray:none;stroke-opacity:1"
       inkscape:connector-curvature="0"
       inkscape:transform-center-x="-44.334262"
       inkscape:transform-center-y="-25.794481" />
    <path
       style="opacity:1;stroke-opacity:1;fill-opacity:1;stroke:none;stroke-linecap:round;stroke-miterlimit:4;stroke-dasharray:none;stroke-width:30.0;fill:#f569d2"
       d="M242.39484 241.62727C115.94895 37.18903 68.8377 52.1134 51.6472 282.12832C112.2614 290.69672 183.69793 277.33337 242.39484 241.62727C242.39484 241.62727 242.39484 241.62727 242.39484 241.62727"
       id="body" />
    <g
       inkscape:transform-center-y="1.4999986"
       inkscape:transform-center-x="38.500001"
       id="#larm"
       inkscape:label="#g4224">
      <path
         style="opacity:1;stroke-opacity:1;fill-opacity:1;stroke:none;stroke-linecap:round;stroke-miterlimit:4;stroke-dasharray:none;stroke-width:30.0;fill:#f4c158"
         d="M19.85552 159.21422C17.65995 159.13852 16.73912 164.81605 14.79888 165.82164C12.85865 166.82724 7.52248 164.39285 6.35748 166.21032C5.19248 168.02778 9.77102 171.64413 9.69341 173.78649C9.61581 175.92884 4.78782 179.21947 5.81841 181.11266C6.849 183.00587 12.3464 180.94661 14.20904 182.08336C16.07167 183.22012 16.57986 188.94514 18.77545 189.02086C20.97103 189.09656 21.89185 183.42099 23.83209 182.41539C26.81889 178.99145 79.70026 177.71996 105.92193 176.2611C105.92193 176.2611 105.62896 166.69274 105.62896 166.69274C80.3225 164.45771 26.36278 170.25644 24.41998 166.15368C22.55734 165.01692 22.05111 159.28994 19.85552 159.21422C19.85552 159.21422 19.85552 159.21422 19.85552 159.21422"
         id="rect4144" />
      <path
         id="rect4141"
         d="M114.25616 145.13256C137.41135 154.35046 134.19414 186.51193 115.74725 193.6811C97.30036 200.85026 84.19186 169.13458 67.19871 195.17218C67.19871 195.17218 65.70763 146.62364 65.70763 146.62364C85.0429 167.6276 91.10098 135.91466 114.25616 145.13256C114.25616 145.13256 114.25616 145.13256 114.25616 145.13256"
         style="opacity:1;stroke-opacity:1;fill-opacity:1;stroke:none;stroke-linecap:round;stroke-miterlimit:4;stroke-dasharray:none;stroke-width:30.0;fill:#7d10ea" />
    </g>
    <path
       style="opacity:1;fill:#58dff4;fill-opacity:1;stroke:none;stroke-width:30;stroke-linecap:round;stroke-miterlimit:4;stroke-dasharray:none;stroke-opacity:1"
       d="m 259.60422,133.86757 c 10.30103,20.98114 -5.03115,49.61719 -34.24539,63.9604 -29.21424,14.34322 -45.63932,-4.68693 -71.54874,-12.01902 7.8093,-29.47484 5.03114,-49.61718 34.24538,-63.9604 29.21424,-14.34322 61.24771,-8.96212 71.54875,12.01902 0,0 0,0 0,0"
       id="#lwing"
       inkscape:connector-curvature="0"
       inkscape:transform-center-y="-23.376257"
       inkscape:transform-center-x="-45.946417" />
    <g
       id="#head"
       inkscape:transform-center-x="-44.334262"
       inkscape:transform-center-y="-54.813271"
       inkscape:label="#g4380">
      <ellipse
         inkscape:label="#path4152"
         ry="56.506336"
         rx="68.519493"
         cy="59.110832"
         cx="112.23906"
         id="face"
         style="opacity:1;fill:#f4cb5a;fill-opacity:1;stroke:none;stroke-width:30;stroke-linecap:round;stroke-miterlimit:4;stroke-dasharray:none;stroke-opacity:1" />
      <ellipse
         style="opacity:1;fill:#800000;fill-opacity:1;stroke:none;stroke-width:1.56709445;stroke-linecap:round;stroke-miterlimit:4;stroke-dasharray:none;stroke-opacity:1"
         id="path4175"
         cx="85.072678"
         cy="68.840439"
         rx="9.7301769"
         ry="15.743758" />
      <ellipse
         ry="14.023689"
         rx="8.6671162"
         cy="70.130508"
         cx="85.825211"
         id="ellipse4177"
         style="opacity:1;fill:#ffffff;fill-opacity:1;stroke:none;stroke-width:1.56709445;stroke-linecap:round;stroke-miterlimit:4;stroke-dasharray:none;stroke-opacity:1" />
      <ellipse
         style="opacity:1;fill:#0080ff;fill-opacity:1;stroke:none;stroke-width:1.56709445;stroke-linecap:round;stroke-miterlimit:4;stroke-dasharray:none;stroke-opacity:1"
         id="ellipse4179"
         cx="86.900253"
         cy="72.119339"
         rx="7.5920734"
         ry="12.03486" />
      <ellipse
         ry="7.3584237"
         rx="5.0657229"
         cy="74.000656"
         cx="87.599045"
         id="ellipse4181"
         style="opacity:1;fill:#000000;fill-opacity:1;stroke:none;stroke-width:1.56709445;stroke-linecap:round;stroke-miterlimit:4;stroke-dasharray:none;stroke-opacity:1" />
      <ellipse
         style="opacity:1;fill:#ffffff;fill-opacity:1;stroke:none;stroke-width:1.56709445;stroke-linecap:round;stroke-miterlimit:4;stroke-dasharray:none;stroke-opacity:1"
         id="ellipse4183"
         cx="85.556442"
         cy="71.366806"
         rx="0.87305564"
         ry="1.0694228" />
      <path
         id="hair"
         d="m 243.66112,68.32258 c -18.77983,10.54064 -27.60649,15.53384 -61.91158,8.09765 -12.73712,-14.46295 -25.13516,-29.22532 -36.86327,-29.22532 -11.67853,0 -59.43448,3.24768 -73.717,-0.57228 -21.0328,9.38429 -27.28252,31.49244 -27.28252,9.91584 0,-31.20759 30.67723,-56.50633 68.5195,-56.50633 8.86093,0 37.26852,-1.3767 57.31797,13.89161 32.36828,24.64948 91.44946,9.92043 99.16657,19.58327 3.44596,4.3148 -28.31339,-0.0855 -33.11014,4.69253 -2.41109,2.40167 20.68062,8.6333 24.16951,14.57469 1.67274,2.8486 -24.28717,0.31175 -27.39502,2.78198 -4.13912,3.28991 13.66524,11.32991 11.10598,12.76636 0,0 0,0 0,0"
         style="opacity:1;fill:#674d07;fill-opacity:1;stroke:none;stroke-width:30;stroke-linecap:round;stroke-miterlimit:4;stroke-dasharray:none;stroke-opacity:1"
         inkscape:connector-curvature="0" />
      <path
         d="m 123.9472,90.09467 c 0,5.50175 -5.33245,10.04824 -12.15677,10.36494 -6.82432,0.3167 -12.770686,-3.70636 -13.556356,-9.17165"
         id="mouth"
         style="opacity:1;fill:none;fill-opacity:1;stroke:#800000;stroke-width:4.21386862;stroke-linecap:round;stroke-miterlimit:4;stroke-dasharray:none;stroke-opacity:1"
         inkscape:connector-curvature="0" />
      <ellipse
         transform="scale(-1,1)"
         ry="15.743758"
         rx="9.7301769"
         cy="69.321594"
         cx="-138.27379"
         id="ellipse4202"
         style="opacity:1;fill:#800000;fill-opacity:1;stroke:none;stroke-width:1.56709445;stroke-linecap:round;stroke-miterlimit:4;stroke-dasharray:none;stroke-opacity:1" />
      <ellipse
         transform="scale(-1,1)"
         style="opacity:1;fill:#ffffff;fill-opacity:1;stroke:none;stroke-width:1.56709445;stroke-linecap:round;stroke-miterlimit:4;stroke-dasharray:none;stroke-opacity:1"
         id="ellipse4204"
         cx="-137.52126"
         cy="70.611664"
         rx="8.6671162"
         ry="14.023689" />
      <ellipse
         transform="scale(-1,1)"
         ry="12.03486"
         rx="7.5920734"
         cy="72.600494"
         cx="-136.44621"
         id="ellipse4206"
         style="opacity:1;fill:#0080ff;fill-opacity:1;stroke:none;stroke-width:1.56709445;stroke-linecap:round;stroke-miterlimit:4;stroke-dasharray:none;stroke-opacity:1" />
      <ellipse
         transform="scale(-1,1)"
         style="opacity:1;fill:#000000;fill-opacity:1;stroke:none;stroke-width:1.56709445;stroke-linecap:round;stroke-miterlimit:4;stroke-dasharray:none;stroke-opacity:1"
         id="ellipse4208"
         cx="-135.74742"
         cy="74.481812"
         rx="5.0657229"
         ry="7.3584237" />
      <ellipse
         transform="scale(-1,1)"
         ry="1.0694228"
         rx="0.87305564"
         cy="71.570038"
         cx="-133.93364"
         id="ellipse4210"
         style="opacity:1;fill:#ffffff;fill-opacity:1;stroke:none;stroke-width:1.56709445;stroke-linecap:round;stroke-miterlimit:4;stroke-dasharray:none;stroke-opacity:1" />
    </g>
  </g>
</svg>
