<?xml version="1.0" encoding="UTF-8" standalone="no"?>
<!-- Created with Inkscape (http://www.inkscape.org/) -->

<svg
   xmlns:dc="http://purl.org/dc/elements/1.1/"
   xmlns:cc="http://creativecommons.org/ns#"
   xmlns:rdf="http://www.w3.org/1999/02/22-rdf-syntax-ns#"
   xmlns:svg="http://www.w3.org/2000/svg"
   xmlns="http://www.w3.org/2000/svg"
   xmlns:sodipodi="http://sodipodi.sourceforge.net/DTD/sodipodi-0.dtd"
   xmlns:inkscape="http://www.inkscape.org/namespaces/inkscape"
   sodipodi:docname="unicorn.svg"
   inkscape:version="0.91 r13725"
   version="1.1"
   id="svg4395"
   viewBox="0 0 406.7635 390.16184"
   height="110.11234mm"
   width="114.7977mm">
  <sodipodi:namedview
     inkscape:window-maximized="1"
     inkscape:window-y="0"
     inkscape:window-x="0"
     inkscape:window-height="1416"
     inkscape:window-width="2560"
     fit-margin-bottom="0"
     fit-margin-right="0"
     fit-margin-left="0"
     fit-margin-top="0"
     showgrid="false"
     inkscape:current-layer="layer1"
     inkscape:document-units="px"
     inkscape:cy="46.177626"
     inkscape:cx="-48.035263"
     inkscape:zoom="1.4"
     inkscape:pageshadow="2"
     inkscape:pageopacity="0"
     borderopacity="1.0"
     bordercolor="#666666"
     pagecolor="#0297ff"
     id="base" />
  <defs
     id="defs4397" />
  <metadata
     id="metadata4400">
    <rdf:RDF>
      <cc:Work
         rdf:about="">
        <dc:format>image/svg+xml</dc:format>
        <dc:type
           rdf:resource="http://purl.org/dc/dcmitype/StillImage" />
        <dc:title></dc:title>
      </cc:Work>
    </rdf:RDF>
  </metadata>
  <g
     id="layer1"
     inkscape:groupmode="layer"
     inkscape:label="Layer 1">
    <g
       inkscape:transform-center-y="45.961951"
       inkscape:transform-center-x="-18.182746"
       inkscape:label="#g5078"
       id="#rrleg">
      <path
         style="opacity:1;stroke-opacity:1;fill-opacity:1;stroke:none;stroke-linecap:round;stroke-miterlimit:4;stroke-dasharray:none;stroke-width:7.07106781187;fill:#ff00ff"
         d="M255.574662 364.27005C255.574662 364.27005 297.006962 347.10179 297.006962 347.10179C301.499452 353.96272 305.699852 360.89717 305.794812 368.86499C279.544512 387.47968 275.589522 382.98823 264.362512 386.03327C260.440722 380.29623 256.912112 373.95809 255.574662 364.27005C255.574662 364.27005 255.574662 364.27005 255.574662 364.27005"
         id="path4967" />
      <path
         style="opacity:1;stroke-opacity:1;fill-opacity:1;stroke:none;stroke-linecap:round;stroke-miterlimit:4;stroke-dasharray:none;stroke-width:7.07106781187;fill:#cccccc"
         d="M233.271832 254.00247C233.271832 254.00247 270.612462 244.92323 270.612462 244.92323C273.943552 284.91374 282.811102 316.82138 299.075642 350.20478C283.005152 362.04718 270.050922 368.53341 255.870732 365.38803C242.880112 329.28242 234.346432 292.3139 233.271832 254.00247C233.271832 254.00247 233.271832 254.00247 233.271832 254.00247"
         id="path4969" />
    </g>
    <g
       inkscape:transform-center-y="49.497485"
       inkscape:transform-center-x="13.131983"
       inkscape:label="#g5086"
       id="#frleg">
      <path
         id="path4955"
         d="M55.436512 342.299C55.436512 342.299 99.813152 348.78731 99.813152 348.78731C100.155232 356.98107 100.208802 365.0883 96.207392 371.97915C64.126772 374.51266 63.032062 368.62906 51.830752 365.49085C51.402822 358.55465 51.620562 351.30374 55.436512 342.299C55.436512 342.299 55.436512 342.299 55.436512 342.299"
         style="opacity:1;stroke-opacity:1;fill-opacity:1;stroke:none;stroke-linecap:round;stroke-miterlimit:4;stroke-dasharray:none;stroke-width:7.07106781187;fill:#ff00ff" />
      <path
         id="path4957"
         d="M92.788942 236.18042C92.788942 236.18042 129.506882 247.51831 129.506882 247.51831C111.875022 283.56625 103.139372 315.51026 99.999522 352.51199C80.130922 354.44638 65.683012 353.37815 55.117872 343.41076C62.464072 305.74904 74.079772 269.63019 92.788942 236.18042C92.788942 236.18042 92.788942 236.18042 92.788942 236.18042"
         style="opacity:1;stroke-opacity:1;fill-opacity:1;stroke:none;stroke-linecap:round;stroke-miterlimit:4;stroke-dasharray:none;stroke-width:7.07106781187;fill:#cccccc" />
    </g>
    <path
       id="path4943"
       d="M287.534452 247.04695C282.198132 290.07353 231.499572 315.07859 174.296042 302.89733C117.092512 290.71607 65.794892 296.97398 80.382142 202.9347C87.008432 160.21713 103.653272 133.38783 169.336832 169.81275C222.707942 199.40979 292.870762 204.02037 287.534452 247.04695C287.534452 247.04695 287.534452 247.04695 287.534452 247.04695"
       style="opacity:1;stroke-opacity:1;fill-opacity:1;stroke:none;stroke-linecap:round;stroke-miterlimit:4;stroke-dasharray:none;stroke-width:7.07106781187;fill:#ffffff" />
    <g
       inkscape:transform-center-y="50.002561"
       inkscape:transform-center-x="-2.0203051"
       inkscape:label="#g5082"
       id="#flleg">
      <path
         style="opacity:1;stroke-opacity:1;fill-opacity:1;stroke:none;stroke-linecap:round;stroke-miterlimit:4;stroke-dasharray:none;stroke-width:7.07106781187;fill:#ff00ff"
         d="M106.010562 366.02126C106.010562 366.02126 150.326102 359.12795 150.326102 359.12795C153.070422 366.85605 155.513552 374.58658 153.723322 382.35126C123.818232 394.23699 121.036372 388.93828 109.407782 389.24458C106.952472 382.74339 105.021222 375.75101 106.010562 366.02126C106.010562 366.02126 106.010562 366.02126 106.010562 366.02126"
         id="rect4948" />
      <path
         style="opacity:1;stroke-opacity:1;fill-opacity:1;stroke:none;stroke-linecap:round;stroke-miterlimit:4;stroke-dasharray:none;stroke-width:7.07106781187;fill:#ececec"
         d="M110.391262 253.60611C110.391262 253.60611 146.294452 265.72794 146.294452 265.72794C140.082972 305.3733 143.686262 326.35085 151.603092 362.63185C133.189652 370.34212 119.069712 373.58412 106.034112 367.17754C101.941672 329.02491 102.383872 291.0868 110.391262 253.60611C110.391262 253.60611 110.391262 253.60611 110.391262 253.60611"
         id="rect4945" />
    </g>
    <g
       inkscape:transform-center-y="48.487332"
       inkscape:transform-center-x="3.0304576"
       inkscape:label="#g5074"
       id="#rlleg">
      <path
         id="path4963"
         d="M203.081992 365.66412C203.081992 365.66412 247.397532 358.77081 247.397532 358.77081C250.141852 366.49891 252.584982 374.22944 250.794752 381.99412C220.889662 393.87985 218.107802 388.58114 206.479212 388.88744C204.023902 382.38625 202.092652 375.39387 203.081992 365.66412C203.081992 365.66412 203.081992 365.66412 203.081992 365.66412"
         style="opacity:1;stroke-opacity:1;fill-opacity:1;stroke:none;stroke-linecap:round;stroke-miterlimit:4;stroke-dasharray:none;stroke-width:7.07106781187;fill:#ff00ff" />
      <path
         id="path4965"
         d="M181.008742 240.78922C181.008742 240.78922 245.891262 253.24897 245.891262 253.24897C239.679782 292.89433 240.757692 325.99371 248.674522 362.27471C230.261082 369.98498 216.141142 373.22698 203.105542 366.8204C201.874182 343.228 208.483492 312.09171 205.885502 290.76299C203.950772 274.87941 177.557622 255.62303 181.008742 240.78922C181.008742 240.78922 181.008742 240.78922 181.008742 240.78922"
         style="opacity:1;stroke-opacity:1;fill-opacity:1;stroke:none;stroke-linecap:round;stroke-miterlimit:4;stroke-dasharray:none;stroke-width:7.07106781187;fill:#ececec" />
    </g>
    <g
       inkscape:transform-center-y="36.365502"
       inkscape:transform-center-x="-59.093924"
       inkscape:label="#g5068"
       id="#tail">
      <path
         style="stroke-linejoin:miter;stroke-opacity:1;fill-rule:evenodd;fill-opacity:1;stroke:none;stroke-linecap:butt;stroke-width:1.41421356237;fill:#77bcff"
         d="M273.648402 219.46031C289.999662 203.47041 315.371472 199.73109 334.203062 212.1112C342.320032 217.66455 348.964152 226.76426 350.883892 237.52674C354.137432 248.84502 360.052332 261.41835 370.894692 264.62368C376.518612 266.30785 382.160342 263.84918 387.233372 261.31077C393.543902 257.75449 395.607442 265.18281 391.220472 269.82941C388.608342 275.10465 384.297852 279.56293 383.130442 285.59049C387.432362 289.76798 394.417622 279.91438 398.917772 285.51599C401.387372 289.6242 394.383802 297.26919 394.911102 296.51554C400.058362 292.69016 410.957562 295.22257 404.945072 303.79112C399.686182 312.29926 391.011482 319.73408 381.513722 318.94888C375.159452 315.73066 368.205542 314.9699 361.630822 312.00526C342.273622 303.11814 338.930402 275.98894 325.451042 258.70315C318.413562 223.10343 285.121712 240.31486 274.406292 224.84815C274.104222 223.16753 269.588302 217.44237 273.648402 219.46032C273.648402 219.46032 273.648402 219.46031 273.648402 219.46031"
         id="path5048" />
      <path
         style="stroke-linejoin:miter;stroke-opacity:1;fill-rule:evenodd;fill-opacity:1;stroke:none;stroke-linecap:butt;stroke-width:1.41421356237;fill:#ff77ef"
         d="M274.406112 224.84793C285.121532 240.31464 318.413552 223.10368 325.451032 258.7034C338.930392 275.98919 342.273522 303.11902 361.630722 312.00614C368.205442 314.97078 375.159262 315.73128 381.513532 318.9495C391.011292 319.7347 399.686282 312.29943 404.945172 303.79129C408.903672 298.14994 406.535902 292.61774 396.492662 295.07899C382.466362 309.4074 377.100592 304.78411 361.630722 298.00614C345.844952 284.11902 342.144682 261.81062 328.665322 244.52483C313.752432 233.8031 323.376982 228.44156 274.406112 224.84793C274.406112 224.84793 274.406112 224.84793 274.406112 224.84793M390.320172 260.37723C389.723572 260.36703 389.048572 260.50415 388.302602 260.80106C386.140062 264.17249 383.918482 267.52277 383.130722 271.59012C385.159382 273.5601 387.786572 272.40319 390.466662 271.22489C390.724902 270.76296 390.986172 270.30372 391.220562 269.83036C394.784982 266.05499 394.090532 260.4414 390.320172 260.37723C390.320172 260.37723 390.320172 260.37723 390.320172 260.37723"
         id="path5043" />
      <path
         style="stroke-linejoin:miter;stroke-opacity:1;fill-rule:evenodd;fill-opacity:1;stroke:none;stroke-linecap:butt;stroke-width:1.41421356237;fill:#09ff00"
         d="M309.056502 204.74442C296.244932 204.79102 283.356862 209.96721 273.648302 219.46122C269.588202 217.44326 274.104042 223.16731 274.406112 224.84793C276.824312 228.33838 278.630222 225.10778 282.786782 226.25225C298.233782 217.57658 317.216322 223.48572 332.238702 233.36161C340.355672 238.91496 345.750602 247.83657 347.670342 258.59905C350.923882 269.91733 360.052032 281.41799 370.894392 284.62332C375.312092 285.94627 379.989582 287.2307 384.144982 285.41042C385.857712 280.68441 389.014912 274.28472 391.220562 269.83036C395.607532 265.18376 393.544772 257.75454 387.234242 261.31082C382.161212 263.84923 376.518312 266.30749 370.894392 264.62332C360.052032 261.41799 354.138172 248.8459 350.884632 237.52762C348.964892 226.76514 342.319962 217.66496 334.202992 212.11161C326.552652 207.08219 317.822312 204.71256 309.056502 204.74442C309.056502 204.74442 309.056502 204.74442 309.056502 204.74442"
         id="path5034" />
      <path
         style="stroke-linejoin:miter;stroke-opacity:1;fill-rule:evenodd;stroke:none;stroke-linecap:butt;stroke-width:1.41421356237;fill:#ffff00"
         d="M309.056502 204.74442C296.244932 204.79102 283.356862 209.96721 273.648302 219.46122C269.588202 217.44326 274.104042 223.16731 274.406112 224.84793C274.783782 225.39307 275.193232 225.89392 275.624862 226.36161C291.962132 212.68658 315.471962 210.05714 333.193222 221.70731C341.310192 227.26066 347.953172 236.36084 349.872912 247.12332C353.126452 258.4416 359.042272 271.01565 369.884632 274.22098C375.508552 275.90515 381.149492 273.44494 386.222522 270.90653C388.243202 269.76778 389.822832 269.76421 390.900252 270.42606C391.004962 270.22636 391.120562 270.03232 391.220562 269.83036C395.607532 265.18376 393.544772 257.75454 387.234242 261.31082C382.161212 263.84923 376.518312 266.30749 370.894392 264.62332C360.052032 261.41799 354.138172 248.8459 350.884632 237.52762C348.964892 226.76514 342.319962 217.66496 334.202992 212.11161C326.552652 207.08219 317.822312 204.71256 309.056502 204.74442C309.056502 204.74442 309.056502 204.74442 309.056502 204.74442"
         id="path5008" />
    </g>
    <g
       id="#head"
       inkscape:label="#g5949"
       inkscape:transform-center-x="14.285714"
       inkscape:transform-center-y="-54.285704">
      <path
         style="opacity:1;fill:#f2f2f2;fill-opacity:1;stroke:none;stroke-width:7.07106781;stroke-linecap:round;stroke-miterlimit:4;stroke-dasharray:none;stroke-opacity:1"
         d="M 115.53921,174.91448 C 98.326942,217.30007 57.820152,238.55045 23.070512,226.76591 -10.786259,213.01709 -1.157717,175.27252 8.534315,133.56393 18.888912,89.00406 51.544882,59.52529 85.401662,73.27412 c 33.856788,13.74883 47.349828,59.25476 30.137548,101.64036 0,0 0,0 0,0"
         id="path4971"
         inkscape:connector-curvature="0" />
      <path
         style="opacity:1;fill:#ff00ff;fill-opacity:1;stroke:none;stroke-width:7.07106781;stroke-linecap:round;stroke-miterlimit:4;stroke-dasharray:none;stroke-opacity:1"
         d="m 64.528322,186.16156 c -9.06018,-17.57948 -32.51112,-30.94385 -48.665085,-21.50646 -11.872471,6.93607 -15.973364,8.94687 -15.860998,42.15744 0.06691,19.77678 28.991583,25.28656 47.593643,23.29217 51.82774,-5.55663 25.9935,-26.36203 16.93244,-43.94315 0,0 0,0 0,0"
         id="ellipse4973"
         inkscape:connector-curvature="0" />
      <ellipse
         transform="matrix(0.93618699,0.35150236,-0.35150236,0.93618699,0,0)"
         style="opacity:1;fill:#009cff;fill-opacity:1;stroke:none;stroke-width:6.08864117;stroke-linecap:round;stroke-miterlimit:4;stroke-dasharray:none;stroke-opacity:1"
         id="path4975"
         cx="84.598625"
         cy="111.97945"
         rx="14.89975"
         ry="17.930208" />
      <ellipse
         transform="matrix(0.9586216,0.28468339,-0.28468339,0.9586216,0,0)"
         ry="17.930208"
         rx="14.89975"
         cy="121.74968"
         cx="118.75201"
         id="ellipse4977"
         style="opacity:1;fill:#009cff;fill-opacity:1;stroke:none;stroke-width:6.08864117;stroke-linecap:round;stroke-miterlimit:4;stroke-dasharray:none;stroke-opacity:1" />
      <ellipse
         style="opacity:1;fill:#000000;fill-opacity:1;stroke:none;stroke-width:7.07106781;stroke-linecap:round;stroke-miterlimit:4;stroke-dasharray:none;stroke-opacity:1"
         id="path5028"
         cx="37.848652"
         cy="140.66631"
         rx="11.111678"
         ry="11.237947" />
      <ellipse
         style="opacity:1;fill:#ffffff;fill-opacity:1;stroke:none;stroke-width:7.07106781;stroke-linecap:round;stroke-miterlimit:4;stroke-dasharray:none;stroke-opacity:1"
         id="path4988"
         cx="35.77338"
         cy="142.58284"
         rx="4.1071429"
         ry="4.4642859" />
      <ellipse
         ry="11.237947"
         rx="11.111678"
         cy="156.32368"
         cx="76.739532"
         id="ellipse5030"
         style="opacity:1;fill:#000000;fill-opacity:1;stroke:none;stroke-width:7.07106781;stroke-linecap:round;stroke-miterlimit:4;stroke-dasharray:none;stroke-opacity:1" />
      <ellipse
         ry="4.4642859"
         rx="4.1071429"
         cy="158.13124"
         cx="73.204666"
         id="ellipse4990"
         style="opacity:1;fill:#ffffff;fill-opacity:1;stroke:none;stroke-width:7.07106781;stroke-linecap:round;stroke-miterlimit:4;stroke-dasharray:none;stroke-opacity:1" />
      <path
         style="fill:none;fill-rule:evenodd;stroke:#000000;stroke-width:7.07106781;stroke-linecap:butt;stroke-linejoin:miter;stroke-miterlimit:4;stroke-dasharray:none;stroke-opacity:1"
         d="m 10.228075,191.52273 c 7.682147,16.22814 7.429237,29.67888 40.714277,20.71429"
         id="path4993"
         inkscape:connector-curvature="0" />
      <path
         id="path5022"
         d="M 35.028942,88.81671 C 30.069742,80.54463 21.468822,77.5164 10.84879,77.39557 c 2.127599,11.48047 10.747732,15.93385 13.043842,25.90741 5.3952,-6.06926 6.87214,-7.8449 11.13631,-14.48627 0,0 0,0 0,0"
         style="opacity:1;fill:#e6e6e6;fill-opacity:1;stroke:none;stroke-width:7.07106781;stroke-linecap:round;stroke-miterlimit:4;stroke-dasharray:none;stroke-opacity:1"
         inkscape:connector-curvature="0" />
      <circle
         style="opacity:1;fill:#666666;fill-opacity:1;stroke:none;stroke-width:7.07106781;stroke-linecap:round;stroke-miterlimit:4;stroke-dasharray:none;stroke-opacity:1"
         id="path5024"
         cx="32.292812"
         cy="181.19865"
         r="3.2829957" />
      <circle
         r="3.2829957"
         cy="185.74434"
         cx="42.394337"
         id="circle5026"
         style="opacity:1;fill:#666666;fill-opacity:1;stroke:none;stroke-width:7.07106781;stroke-linecap:round;stroke-miterlimit:4;stroke-dasharray:none;stroke-opacity:1" />
      <path
         id="path5053"
         d="m 37.780422,91.9968 c 2.69327,-13.38489 8.80643,-28.40861 24.75004,-33.00687 49.185118,-4.89218 57.731138,40.90169 76.693668,62.87739 11.41937,8.13696 31.85061,-5.91501 27.89156,-19.0388 3.56492,13.6856 8.89697,11.72466 13.25426,0.2386 7.86124,10.29016 16.63533,27.39945 1.36489,38.43343 -5.69735,5.82301 -22.87536,15.52511 -6.14972,6.86901 16.46375,-19.75663 18.21125,4.10443 4.52989,14.10843 -18.73491,5.19932 -35.11896,10.64932 -51.77209,2.82614 -10.81059,-14.51825 -18.13008,-33.76527 -30.409788,-45.68714 -10.86036,-13.48088 -35.30317,-12.42208 -52.24172,-19.35562 -2.37109,-1.85594 -9.20753,-4.91228 -7.91099,-8.26457 0,0 0,0 0,0"
         style="fill:#ff00fd;fill-opacity:1;fill-rule:evenodd;stroke:none;stroke-width:0.9820658;stroke-linecap:butt;stroke-linejoin:miter;stroke-opacity:1"
         inkscape:connector-curvature="0" />
      <path
         style="fill:#00afff;fill-opacity:1;fill-rule:evenodd;stroke:none;stroke-width:0.9820658;stroke-linecap:butt;stroke-linejoin:miter;stroke-opacity:1"
         d="m 69.184572,58.62807 c -2.13222,0.0143 -4.34874,0.132 -6.6543,0.36132 -15.94361,4.59826 -22.05673,19.62293 -24.75,33.00782 -1.29653,3.35229 5.54102,6.40773 7.91211,8.26367 2.5201,1.03156 4.95076,2.18347 7.31641,3.41992 2.70668,-2.01648 5.85101,-3.63281 9.52148,-4.69141 49.185118,-4.89218 57.730828,40.90126 76.693358,62.87696 11.41937,8.13696 31.85163,-5.91332 27.89258,-19.03711 0.92292,3.54306 1.96395,6.02818 3.07617,7.58008 2.88965,-2.05625 8.66749,-5.9693 11.54297,-8.90821 15.27044,-11.03398 6.49601,-28.14343 -1.36523,-38.43359 -4.35729,11.48606 -9.68899,13.44732 -13.25391,-0.23828 3.95905,13.12379 -16.47321,27.17407 -27.89258,19.03711 -18.07366,-20.94559 -26.68389,-63.5281 -70.039058,-63.23828 0,0 0,0 0,0"
         id="path5063"
         inkscape:connector-curvature="0" />
      <path
         style="fill:#00ff25;fill-opacity:1;fill-rule:evenodd;stroke:none;stroke-width:0.9820658;stroke-linecap:butt;stroke-linejoin:miter;stroke-opacity:1"
         d="m 69.184572,58.62807 c -2.13222,0.0143 -4.34874,0.132 -6.6543,0.36132 -15.94361,4.59826 -22.05673,19.62293 -24.75,33.00782 -1.29653,3.35229 5.54102,6.40773 7.91211,8.26367 0.21781,0.0891 0.42791,0.18854 0.64454,0.2793 3.78346,-5.23781 8.97339,-9.46849 16.19335,-11.55079 49.185118,-4.89218 57.730828,40.90126 76.693358,62.87696 11.41937,8.13696 31.85163,-5.91332 27.89258,-19.03711 3.56492,13.6856 8.89662,11.72434 13.25391,0.23828 1.40335,1.83695 2.83084,3.89748 4.15039,6.0957 11.28484,-10.99788 3.17525,-26.50663 -4.15039,-36.0957 -4.35729,11.48606 -9.68899,13.44732 -13.25391,-0.23828 3.95905,13.12379 -16.47321,27.17407 -27.89258,19.03711 -18.07366,-20.94559 -26.68389,-63.5281 -70.039058,-63.23828 0,0 0,0 0,0"
         id="path5060"
         inkscape:connector-curvature="0" />
      <path
         style="fill:#ffff00;fill-rule:evenodd;stroke:none;stroke-width:0.9820658;stroke-linecap:butt;stroke-linejoin:miter;stroke-opacity:1"
         d="m 69.184572,58.62807 c -2.13222,0.0143 -4.34874,0.132 -6.6543,0.36132 -15.9436,4.59826 -22.05673,19.62293 -24.75,33.00782 -0.70331,1.81847 0.9982,3.54108 3.07032,5.04101 3.65539,-9.77477 10.04105,-18.69215 21.67968,-22.04883 49.185118,-4.89218 57.730828,40.90126 76.693358,62.87696 11.41937,8.13696 31.85163,-5.91332 27.89258,-19.03711 3.56492,13.6856 8.89662,11.72434 13.25391,0.23828 3.08893,4.04333 6.31124,9.14106 8.16797,14.50781 4.69251,-10.22564 -2.01565,-22.45459 -8.16797,-30.50781 -4.35729,11.48606 -9.68899,13.44732 -13.25391,-0.23828 3.95905,13.12379 -16.47321,27.17407 -27.89258,19.03711 -18.07366,-20.94559 -26.68389,-63.5281 -70.039058,-63.23828 0,0 0,0 0,0"
         id="path4982"
         inkscape:connector-curvature="0" />
      <path
         style="opacity:1;fill:#ff8fff;fill-opacity:1;stroke:none;stroke-width:7.07106781;stroke-linecap:round;stroke-miterlimit:4;stroke-dasharray:none;stroke-opacity:1"
         d="m 1.292936,0 c 0,0 74.507296,84.03437 74.507296,84.03437 1.47285,17.01293 -10.87705,18.72731 -26.20055,17.15061 C 49.599682,101.18498 1.292936,0 1.292936,0"
         id="rect4979"
         inkscape:connector-curvature="0" />
      <path
         style="opacity:1;fill:#e6e6e6;fill-opacity:1;stroke:none;stroke-width:7.07106781;stroke-linecap:round;stroke-miterlimit:4;stroke-dasharray:none;stroke-opacity:1"
         d="m 93.757942,115.24528 c 4.9592,-8.27208 13.560118,-11.30031 24.180158,-11.42114 6.20616,12.23808 -10.49519,23.25745 -10.771,30.70563 -13.981508,-11.12002 -12.680518,-11.38043 -13.409158,-19.28449 0,0 0,0 0,0"
         id="rect5019"
         inkscape:connector-curvature="0" />
    </g>
  </g>
</svg>
